<svg width="28" height="28" viewBox="0 0 28 28" fill="none" xmlns="http://www.w3.org/2000/svg">
<g clip-path="url(#clip0_2_58)">
<path d="M14.336 0C18.739 0 22.8158 1.953 25.5192 5.2416C25.5962 5.33482 25.6537 5.44258 25.6882 5.55847C25.7227 5.67435 25.7336 5.796 25.7201 5.91617C25.7067 6.03634 25.6692 6.15257 25.6099 6.25796C25.5506 6.36334 25.4707 6.45572 25.375 6.5296C25.1801 6.68234 24.9334 6.75316 24.6872 6.72702C24.441 6.70088 24.2147 6.57985 24.0562 6.3896C22.8742 4.95764 21.389 3.80595 19.7078 3.01766C18.0266 2.22937 16.1914 1.82413 14.3346 1.8312C7.4536 1.8312 1.8746 7.28 1.8746 14C1.8746 20.72 7.4536 26.1688 14.3346 26.1688C16.2182 26.1762 18.0792 25.7593 19.7796 24.9491C21.4801 24.1389 22.9762 22.9561 24.157 21.4886C24.3128 21.2964 24.5373 21.1724 24.7829 21.1429C25.0286 21.1133 25.2761 21.1806 25.473 21.3304C25.5696 21.403 25.6505 21.4943 25.7111 21.5988C25.7717 21.7034 25.8107 21.819 25.8257 21.9389C25.8407 22.0588 25.8315 22.1805 25.7986 22.2967C25.7656 22.413 25.7097 22.5214 25.634 22.6156C22.9348 25.9896 18.8034 28 14.336 28C6.4162 28 0 21.7322 0 14C0 6.2678 6.4176 0 14.336 0ZM23.9372 10.024L27.7256 13.8138C28.0924 14.1792 28.0994 14.7658 27.7424 15.1242L24.0408 18.8244C23.954 18.9098 23.8512 18.9773 23.7382 19.0228C23.6253 19.0684 23.5045 19.0912 23.3827 19.0899C23.2609 19.0886 23.1406 19.0632 23.0286 19.0153C22.9167 18.9673 22.8153 18.8977 22.7304 18.8104C22.6428 18.7255 22.5729 18.6242 22.5247 18.5121C22.4765 18.4001 22.4509 18.2797 22.4495 18.1577C22.4481 18.0358 22.4708 17.9147 22.5164 17.8016C22.5619 17.6885 22.6294 17.5855 22.715 17.4986L24.8808 15.3328H10.4468C10.325 15.3347 10.204 15.3124 10.0908 15.2673C9.97766 15.2222 9.87452 15.1552 9.78734 15.0701C9.70016 14.985 9.63067 14.8835 9.58287 14.7715C9.53507 14.6594 9.50989 14.539 9.5088 14.4172C9.5088 13.9104 9.9288 13.5002 10.4468 13.5002H24.8234L22.6422 11.319C22.5548 11.2342 22.4851 11.1329 22.437 11.021C22.3889 10.9091 22.3634 10.7888 22.362 10.667C22.3606 10.5452 22.3832 10.4244 22.4287 10.3114C22.4741 10.1984 22.5415 10.0955 22.6268 10.0086C22.7137 9.92325 22.8166 9.85592 22.9296 9.81047C23.0426 9.76503 23.1634 9.74237 23.2852 9.7438C23.407 9.74523 23.5273 9.77072 23.6392 9.81881C23.7511 9.8669 23.8524 9.93663 23.9372 10.024Z" fill="black"/>
</g>
<defs>
<clipPath id="clip0_2_58">
<rect width="28" height="28" fill="white"/>
</clipPath>
</defs>
</svg>
